PathFileType	4	(X/Y/Z)	Run_300 01
DataRate	CameraRate	NumFrames	NumMarkers	Units	OrigDataRate	OrigDataStartFrame	OrigNumFrames
120	120	4	42	mm	120	178	128
Frame#	Time	LASI			RASI			LPSI			RPSI			RTH1			RTH3			LTH1			LTH2			LTH3			RTB1			RTB2			RTB3			LTB1			LTB2			LTB3			RCAL			RTOE			RMT5			LCAL			LTOE			LMT5			LACR			RACR			CLAV			C7			RUA1			RUA2			RUA3			RLEL			RMEL			LUA1			LUA2			LUA3			LLEL			LMEL			RFAsuperior			RFAradius			RFAulna			LFAsuperior			LFAradius			LFAulna			RTH2			
		X1	Y1	Z1	X2	Y2	Z2	X3	Y3	Z3	X4	Y4	Z4	X5	Y5	Z5	X6	Y6	Z6	X7	Y7	Z7	X8	Y8	Z8	X9	Y9	Z9	X10	Y10	Z10	X11	Y11	Z11	X12	Y12	Z12	X13	Y13	Z13	X14	Y14	Z14	X15	Y15	Z15	X16	Y16	Z16	X17	Y17	Z17	X18	Y18	Z18	X19	Y19	Z19	X20	Y20	Z20	X21	Y21	Z21	X22	Y22	Z22	X23	Y23	Z23	X24	Y24	Z24	X25	Y25	Z25	X26	Y26	Z26	X27	Y27	Z27	X28	Y28	Z28	X29	Y29	Z29	X30	Y30	Z30	X31	Y31	Z31	X32	Y32	Z32	X33	Y33	Z33	X34	Y34	Z34	X35	Y35	Z35	X36	Y36	Z36	X37	Y37	Z37	X38	Y38	Z38	X39	Y39	Z39	X40	Y40	Z40	X41	Y41	Z41	X42	Y42	Z42	

164	1.508333	1108.044863	1029.572765	-432.527195	1090.504095	1057.463028	-201.359019	941.985461	1085.822533	-386.256782	930.799966	1091.072183	-288.314543	1083.901337	916.922859	-141.579821	1188.575807	700.585433	-184.01063	998.62691	872.503113	-496.37629	1030.291717	756.677849	-461.787275	911.515054	669.234774	-451.297312	1290.789811	486.310733	-238.795188	1230.789799	432.75003	-180.619295	1258.654195	307.724156	-245.666603	848.891675	431.739599	-389.128774	759.626529	377.156071	-438.453321	724.261021	282.384367	-372.062156	1128.319081	182.165647	-281.782997	1334.735338	138.814132	-294.980894	1309.219787	90.90253	-200.529581	569.524784	273.348547	-365.795834	672.779939	102.838292	-307.095456	639.357435	77.021491	-410.235481	1120.140551	1526.787154	-508.380483	1042.902319	1525.295152	-158.874972	1142.971067	1474.511211	-290.044042	1044.571556	1557.353254	-348.023217	983.364922	1473.747703	-121.19034	954.8442219999999	1390.080249	-131.041327	878.593798	1426.798861	-154.388498	797.250806	1343.068241	-139.545663	808.8449869999999	1335.810858	-206.460227	1099.793696	1452.589683	-565.932408	1030.032499	1407.319666	-562.720054	1090.140188	1350.386556	-591.479791	1023.964655	1247.881816	-630.615991	968.324146	1249.049521	-578.446965	842.954556	1270.464787	-97.774878	906.729616	1097.66119	-80.119731	846.534574	1076.762667	-103.209546	1100.18738	1264.925177	-594.923446	1201.257545	1334.005355	-450.125157	1218.669771	1270.192978	-439.420066	1201.658978	801.694497	-171.37093	
165	1.516667	1110.600431	1033.563728	-432.764434	1092.339078	1061.301393	-200.354342	944.551863	1090.229818	-387.272196	933.4574710000001	1095.516195	-289.539423	1081.830566	917.542062	-142.555575	1183.678143	699.3325630000001	-183.925661	1000.063334	877.553195	-497.527809	1028.73648	761.619424	-462.698945	908.928728	676.3158069999999	-449.093519	1293.280764	486.891806	-239.19819	1239.083578	429.570786	-180.121472	1274.576867	306.875929	-246.247442	843.742046	438.952508	-387.510402	754.843068	385.153492	-438.922358	716.124284	290.908137	-372.864009	1153.311288	173.060262	-281.440455	1361.92047	141.711515	-297.025449	1340.042693	90.39431500000001	-204.653508	564.376121	287.954648	-369.640597	655.4516139999999	111.544157	-307.364296	622.13163	86.09054500000001	-409.260293	1120.927066	1531.075333	-506.805485	1042.909303	1528.291714	-157.873298	1143.021405	1477.615963	-288.964232	1044.908076	1560.511019	-346.8984	983.019131	1478.178375	-120.628508	953.803355	1394.445571	-130.511289	878.067604	1432.158806	-154.810688	796.020958	1348.281201	-140.593382	807.981572	1341.450462	-207.479419	1100.796248	1458.000187	-564.730911	1031.313364	1412.872308	-562.9289649999999	1091.362331	1355.700943	-591.758361	1024.555952	1253.239248	-631.618949	968.237681	1254.817887	-580.132429	841.4237409999999	1275.784268	-98.64628399999999	906.023682	1103.060511	-80.67099	846.144	1081.941057	-104.415125	1100.524129	1270.081446	-595.245693	1199.78332	1339.731717	-449.919522	1216.806325	1275.649306	-437.836507	1198.068898	800.188173	-170.691044	
166	1.525	1112.772165	1036.823205	-432.938869	1094.001582	1063.87164	-199.537435	946.912791	1093.895022	-387.965295	935.717631	1098.994938	-290.347229	1078.709648	916.073578	-143.591254	1179.130833	697.0015059999999	-183.548441	1001.405275	882.074061	-498.3351	1027.787341	765.721191	-464.042411	908.318846	681.344735	-447.359797	1294.608454	487.076231	-239.811089	1245.658987	426.684663	-180.018084	1288.27487	306.555866	-246.990638	840.27841	444.204534	-385.746752	751.357473	391.974004	-439.101483	708.249018	298.976932	-373.499072	1175.988521	165.667919	-282.063986	1386.027014	145.857667	-298.479275	1367.350713	92.295946	-207.962313	558.862302	302.285234	-373.947834	638.031446	121.70511	-306.888118	605.14459	95.88950800000001	-407.778036	1121.380012	1534.486344	-505.36731	1043.094715	1530.370947	-156.606917	1143.135679	1479.909145	-287.905818	1045.211736	1562.995039	-345.60548	982.8983019999999	1481.546023	-119.825203	953.019041	1397.70403	-130.009243	877.7466899999999	1436.348716	-154.976488	795.075505	1352.37658	-141.424412	807.350809	1345.911768	-208.280991	1101.47857	1462.353023	-563.7286329999999	1032.306064	1417.297351	-563.22396	1092.276649	1359.890165	-591.995909	1024.63884	1257.790261	-632.583309	967.773868	1259.777899	-581.7172430000001	840.178163	1279.987201	-99.293972	905.713333	1107.521332	-81.05734699999999	846.090464	1086.006809	-105.394327	1100.433562	1274.07313	-595.673533	1198.225576	1343.497405	-449.456618	1214.877887	1279.07583	-436.650655	1194.820016	797.618284	-169.706011	
167	1.533333	1114.567001	1039.297688	-432.95783	1095.411045	1064.956851	-199.528898	948.922261	1096.72225	-388.434554	937.520805	1101.405135	-290.694746	1075.029147	913.221264	-144.640238	1174.927311	693.83889	-183.164102	1002.658705	885.764291	-498.662422	1027.941108	768.561964	-465.26114	910.037459	683.790969	-446.376879	1295.005825	486.854985	-240.445634	1250.088746	423.975196	-180.366661	1299.43897	306.573225	-247.701464	838.304447	447.334764	-384.219376	748.798028	397.631814	-439.092144	700.636078	306.737756	-373.893021	1195.62954	159.841182	-283.493727	1406.427602	151.067385	-299.624379	1390.414278	95.833866	-210.295381	552.9482420000001	316.52628	-378.627565	620.792916	133.540806	-305.678571	588.69052	106.725526	-406.016528	1121.482526	1537.011747	-504.023725	1043.4303	1531.480133	-155.23233	1143.302542	1481.447468	-286.844992	1045.511519	1564.815143	-344.127319	983.001412	1483.738864	-118.801182	952.536443	1399.844586	-129.486308	877.664583	1439.308097	-154.834237	794.446702	1355.323501	-142.000803	807.017278	1349.099572	-208.766204	1101.835249	1465.590726	-562.9590030000001	1032.962374	1420.667496	-563.474289	1092.779565	1363.04735	-592.18414	1024.199285	1261.588867	-633.467368	967.004729	1263.938283	-583.181691	839.269063	1283.027501	-99.72451700000001	905.789121	1110.946154	-81.329059	846.3536340000001	1088.928731	-106.178086	1099.917363	1276.902721	-596.140233	1196.707245	1345.151802	-448.611573	1212.937245	1280.431337	-435.841274	1191.894039	794.259374	-168.690664	
